<?xml version="1.0" standalone="no"?>
<!DOCTYPE svg PUBLIC "-//W3C//DTD SVG 20010904//EN"
 "http://www.w3.org/TR/2001/REC-SVG-20010904/DTD/svg10.dtd">
<svg version="1.0" xmlns="http://www.w3.org/2000/svg"
 width="2048.000000pt" height="2048.000000pt" viewBox="0 0 2048.000000 2048.000000"
 preserveAspectRatio="xMidYMid meet">

<g transform="translate(0.000000,2048.000000) scale(0.100000,-0.100000)"
fill="#000000" stroke="none">
<path d="M9765 19960 c-27 -5 -90 -9 -140 -9 -49 -1 -130 -6 -179 -11 -110
-13 -305 -30 -411 -37 -44 -2 -84 -9 -90 -14 -5 -5 -34 -9 -66 -9 -31 0 -69
-4 -85 -10 -16 -5 -60 -15 -99 -21 -38 -6 -95 -15 -125 -20 -116 -18 -168 -27
-245 -44 -44 -10 -100 -21 -125 -26 -63 -11 -124 -25 -200 -44 -36 -9 -81 -19
-100 -21 -19 -3 -44 -9 -55 -14 -11 -5 -31 -11 -45 -13 -14 -3 -50 -12 -80
-21 -30 -9 -72 -19 -93 -23 -21 -3 -40 -10 -43 -14 -3 -5 -16 -9 -29 -9 -13 0
-34 -4 -47 -9 -13 -5 -50 -17 -83 -26 -33 -10 -69 -21 -80 -25 -11 -4 -85 -28
-165 -54 -142 -46 -265 -89 -305 -106 -11 -5 -40 -16 -65 -24 -25 -8 -58 -20
-75 -26 -16 -7 -39 -16 -50 -20 -50 -19 -164 -65 -205 -83 -48 -21 -103 -43
-135 -56 -11 -5 -40 -18 -63 -30 -24 -11 -48 -21 -53 -21 -18 0 -374 -173
-569 -277 -233 -123 -268 -143 -395 -217 -38 -23 -82 -48 -97 -56 -16 -7 -28
-17 -28 -22 0 -4 -4 -8 -10 -8 -14 0 -356 -220 -488 -314 -63 -45 -124 -88
-136 -96 -22 -15 -225 -170 -295 -225 -89 -70 -150 -121 -210 -174 -35 -31
-71 -60 -80 -65 -9 -5 -18 -12 -21 -15 -3 -4 -50 -47 -105 -96 -115 -102 -363
-333 -415 -386 -92 -93 -392 -410 -435 -459 -26 -30 -59 -69 -74 -85 -82 -94
-132 -154 -241 -290 -162 -200 -531 -703 -551 -750 -2 -5 -27 -43 -54 -84 -28
-40 -64 -98 -80 -127 -17 -30 -36 -59 -43 -66 -7 -7 -12 -16 -12 -20 0 -4 -20
-39 -45 -78 -25 -39 -45 -73 -45 -76 0 -3 -8 -18 -19 -32 -10 -15 -42 -72 -71
-127 -29 -55 -57 -101 -62 -103 -4 -2 -8 -10 -8 -18 0 -8 -10 -31 -23 -52 -25
-40 -168 -329 -212 -427 -15 -33 -35 -78 -45 -100 -59 -130 -70 -156 -70 -160
0 -5 -14 -36 -66 -152 -13 -28 -24 -57 -24 -63 0 -5 -4 -18 -9 -28 -8 -14 -25
-56 -71 -177 -4 -11 -19 -49 -34 -85 -14 -36 -26 -73 -26 -82 0 -9 -4 -20 -10
-23 -5 -3 -10 -16 -10 -29 0 -12 -4 -26 -8 -31 -4 -6 -16 -37 -27 -70 -10 -33
-22 -64 -27 -69 -4 -6 -8 -22 -8 -36 0 -14 -4 -30 -8 -35 -4 -6 -16 -37 -26
-70 -10 -33 -22 -71 -26 -85 -4 -14 -13 -45 -20 -70 -7 -25 -22 -72 -33 -105
-11 -33 -24 -78 -28 -100 -17 -83 -21 -101 -29 -120 -11 -27 -44 -161 -60
-245 -4 -25 -16 -76 -25 -115 -23 -95 -45 -212 -64 -343 -6 -40 -13 -77 -16
-82 -8 -14 -36 -200 -53 -365 -6 -49 -13 -97 -16 -105 -7 -19 -26 -207 -36
-360 -14 -204 -39 -874 -34 -915 3 -22 10 -166 15 -320 11 -311 20 -448 44
-640 9 -71 20 -164 25 -205 21 -169 30 -229 45 -305 9 -44 20 -107 26 -140 9
-56 15 -87 38 -210 5 -27 16 -81 26 -120 16 -68 25 -109 44 -197 5 -24 17 -70
26 -103 18 -63 27 -100 44 -175 5 -25 19 -76 31 -115 11 -38 25 -88 31 -110 6
-22 15 -51 19 -65 4 -14 15 -52 25 -85 9 -33 21 -69 25 -80 4 -11 25 -74 46
-140 21 -66 41 -124 46 -130 4 -5 8 -16 8 -24 0 -13 33 -112 60 -176 4 -11 14
-36 20 -55 7 -19 20 -51 28 -70 8 -19 18 -44 22 -55 31 -80 66 -167 83 -205
48 -110 48 -110 157 -345 46 -101 159 -327 212 -425 101 -188 123 -227 140
-252 10 -14 18 -29 18 -32 0 -3 16 -30 35 -60 19 -30 35 -58 35 -62 0 -4 16
-29 35 -55 19 -27 35 -51 35 -54 0 -6 231 -368 239 -375 4 -3 26 -35 49 -71
24 -37 52 -75 62 -84 11 -10 20 -24 20 -31 0 -7 3 -14 8 -16 4 -1 25 -28 47
-58 22 -30 47 -64 57 -75 9 -11 35 -45 57 -75 22 -30 44 -59 48 -65 57 -68
137 -168 173 -215 54 -71 136 -167 199 -235 25 -27 61 -68 80 -90 169 -199
610 -637 880 -875 41 -36 79 -70 85 -75 6 -6 25 -21 41 -34 17 -12 46 -37 65
-55 19 -17 80 -68 135 -111 55 -44 109 -88 120 -98 11 -10 58 -46 105 -80 47
-33 87 -63 90 -67 7 -7 121 -93 141 -105 31 -19 144 -100 175 -124 10 -8 82
-57 113 -76 29 -18 125 -81 189 -123 34 -23 65 -42 67 -42 3 0 29 -16 58 -34
47 -30 95 -58 172 -100 11 -6 22 -13 25 -16 9 -9 85 -51 103 -57 9 -3 17 -9
17 -14 0 -5 8 -9 17 -9 9 0 24 -6 32 -13 28 -24 460 -247 581 -300 19 -8 60
-26 90 -40 53 -24 133 -59 175 -77 11 -4 46 -20 78 -34 32 -14 60 -26 62 -26
3 0 24 -8 48 -19 23 -10 74 -31 112 -45 39 -15 78 -32 87 -37 10 -5 25 -9 33
-9 8 0 23 -4 33 -9 15 -8 62 -27 127 -51 11 -4 58 -19 105 -34 47 -15 94 -31
105 -36 11 -4 40 -13 65 -20 25 -7 76 -23 113 -36 38 -13 77 -24 88 -24 10 0
27 -4 37 -9 9 -5 44 -17 77 -26 33 -9 78 -21 100 -27 65 -18 98 -26 140 -37
22 -5 60 -15 85 -22 53 -14 107 -27 170 -39 77 -15 132 -27 205 -44 39 -10 99
-22 135 -27 36 -6 88 -14 115 -19 28 -4 86 -13 130 -20 44 -6 83 -14 88 -17
13 -8 228 -32 455 -52 68 -6 128 -13 133 -17 62 -38 1748 -37 1810 1 5 4 63
11 127 17 236 20 350 34 517 63 50 8 117 20 150 25 33 6 83 14 110 20 28 5 77
14 109 20 33 6 63 13 68 16 4 3 32 10 61 15 151 29 137 26 272 64 33 9 78 21
100 25 50 11 93 22 175 49 36 12 81 26 100 31 102 28 147 42 162 51 10 5 29 9
42 9 14 0 28 4 31 10 3 5 16 10 29 10 12 0 26 4 32 8 5 4 36 16 69 27 33 10
64 22 69 27 6 4 18 8 27 8 16 0 120 39 161 61 10 5 25 9 33 9 8 0 23 4 33 9
27 15 89 41 96 41 3 0 25 9 49 19 23 10 61 26 84 35 23 8 64 25 90 37 26 12
64 28 83 37 80 34 383 177 450 212 36 18 146 77 255 135 33 18 78 43 100 55
22 13 60 34 85 48 25 14 56 32 70 41 14 9 34 21 45 28 146 86 239 143 278 170
26 18 50 33 53 33 4 0 35 20 70 45 34 25 65 45 68 45 5 0 394 269 419 290 12
10 154 116 209 156 16 12 43 35 61 51 18 15 50 42 72 58 22 17 49 38 60 49 11
10 36 30 55 45 44 33 170 140 235 200 28 25 93 84 145 130 121 108 583 570
680 681 41 47 77 87 80 90 14 13 198 227 210 246 8 11 32 41 53 65 61 73 208
262 264 340 29 41 67 94 85 118 18 24 40 54 48 67 8 12 47 67 86 121 39 54 73
103 75 108 2 6 39 63 82 128 42 64 77 119 77 122 0 3 19 35 43 72 48 75 83
135 136 233 19 36 37 67 40 70 4 3 18 28 33 55 14 28 41 79 60 115 47 89 52
97 83 160 71 142 84 168 100 205 10 22 30 67 45 100 15 33 34 76 43 95 8 19
24 57 36 83 12 26 29 67 37 90 9 23 27 66 40 95 13 29 24 57 24 62 0 6 4 18 9
28 9 18 18 38 46 112 21 56 32 83 44 113 5 12 15 38 21 57 7 19 18 49 25 65 7
17 18 50 26 75 7 25 16 50 19 55 4 6 10 21 13 35 4 22 12 46 37 115 4 11 20
61 35 110 15 50 31 101 35 115 4 14 13 45 20 70 6 25 23 79 36 121 13 42 24
88 24 102 0 14 4 28 9 31 5 3 11 20 14 38 3 18 12 60 22 93 9 33 20 79 26 103
5 23 13 61 19 85 5 23 14 69 20 101 6 33 13 63 16 68 3 5 10 35 15 66 6 31 14
80 20 107 5 28 14 80 19 117 5 38 11 72 15 77 8 14 33 185 54 376 5 50 12 104
15 120 9 45 26 220 38 405 15 210 15 1287 0 1515 -6 94 -18 226 -27 295 -9 69
-21 161 -26 205 -23 197 -47 366 -54 384 -3 9 -11 47 -16 86 -22 150 -36 226
-64 340 -9 39 -19 86 -22 105 -2 19 -8 44 -13 55 -4 11 -16 56 -26 100 -10 44
-21 84 -26 89 -4 6 -8 21 -8 35 0 13 -4 38 -9 55 -6 17 -17 58 -26 91 -9 33
-20 71 -25 85 -4 14 -13 45 -20 70 -7 25 -16 54 -20 65 -4 11 -15 47 -25 80
-9 33 -21 68 -26 77 -5 10 -9 25 -9 33 0 8 -4 23 -9 33 -5 9 -17 42 -26 72
-10 30 -22 59 -26 65 -5 5 -9 19 -9 31 0 13 -4 26 -10 29 -5 3 -10 16 -10 29
0 12 -4 26 -9 31 -4 6 -21 46 -35 90 -15 44 -33 94 -40 110 -7 17 -23 57 -36
90 -12 33 -31 79 -41 103 -11 24 -27 62 -35 85 -9 23 -25 62 -36 87 -21 46
-44 100 -58 135 -5 11 -32 70 -60 130 -29 61 -72 153 -97 205 -49 106 -68 144
-138 275 -116 218 -140 261 -176 320 -11 17 -22 37 -26 45 -4 8 -31 52 -60 97
-29 46 -53 85 -53 89 0 3 -11 20 -25 38 -14 18 -25 36 -25 40 0 4 -5 12 -10
19 -6 7 -37 53 -70 102 -32 50 -63 95 -68 101 -6 6 -17 24 -25 40 -8 16 -24
38 -36 48 -12 11 -21 25 -21 32 0 7 -4 14 -8 16 -5 2 -50 62 -101 133 -50 72
-108 150 -127 175 -19 25 -47 61 -62 80 -54 71 -148 186 -183 225 -20 22 -61
69 -90 105 -29 36 -55 67 -58 70 -4 3 -35 39 -71 80 -112 129 -485 511 -611
625 -96 88 -163 147 -190 170 -13 11 -71 61 -129 110 -58 50 -127 108 -155
130 -27 22 -59 48 -70 58 -11 11 -31 26 -45 36 -14 9 -36 26 -50 38 -29 25
-48 39 -213 155 -68 47 -129 93 -136 102 -8 9 -17 16 -22 16 -7 0 -72 44 -115
79 -6 5 -28 20 -50 34 -21 14 -93 62 -158 106 -66 45 -121 81 -123 81 -2 0
-29 16 -59 35 -30 19 -57 35 -61 35 -4 0 -16 8 -27 19 -12 10 -42 30 -68 44
-25 14 -64 37 -87 51 -22 14 -43 26 -45 26 -3 0 -29 14 -58 31 -29 17 -84 48
-123 69 -38 21 -88 48 -110 60 -89 51 -557 280 -571 280 -5 0 -69 29 -171 76
-39 19 -78 34 -87 34 -8 0 -18 5 -21 10 -3 6 -13 10 -20 10 -8 0 -38 11 -67
24 -29 13 -87 37 -128 52 -41 15 -79 31 -85 36 -5 4 -19 8 -31 8 -13 0 -25 4
-28 9 -3 5 -16 11 -28 14 -13 2 -61 18 -108 34 -129 46 -479 154 -585 182 -93
24 -161 44 -183 52 -13 5 -36 9 -52 9 -16 0 -31 4 -34 9 -3 5 -23 11 -43 14
-21 3 -67 12 -103 21 -36 10 -85 21 -110 26 -25 5 -65 13 -90 19 -48 11 -173
37 -255 52 -51 9 -119 19 -258 38 -42 5 -82 13 -88 17 -13 8 -244 33 -487 53
-68 5 -136 12 -150 16 -104 22 -1173 43 -1287 25z m835 -1241 c535 -39 621
-47 865 -84 304 -46 374 -58 510 -90 39 -9 90 -21 115 -25 91 -17 220 -50 242
-61 10 -5 28 -9 40 -9 12 0 35 -4 52 -9 17 -6 58 -17 91 -26 33 -9 87 -25 120
-34 33 -10 87 -26 120 -36 33 -10 64 -21 69 -26 6 -5 20 -9 33 -9 13 0 31 -4
41 -9 9 -5 40 -16 67 -25 73 -22 124 -41 131 -49 4 -4 19 -7 34 -7 14 0 30 -4
35 -9 6 -4 33 -16 60 -26 28 -9 61 -22 75 -27 33 -14 58 -23 100 -38 19 -7 51
-20 70 -28 19 -8 46 -19 60 -24 14 -6 33 -14 42 -19 10 -5 22 -9 28 -9 9 0 38
-13 195 -85 39 -18 86 -38 105 -45 19 -7 42 -19 50 -25 8 -6 31 -18 50 -25 19
-7 40 -17 45 -21 6 -4 71 -38 145 -77 209 -108 245 -127 250 -132 3 -3 25 -16
50 -29 25 -13 52 -29 60 -36 8 -6 36 -22 63 -35 26 -13 52 -29 58 -37 6 -7 16
-13 21 -13 9 0 339 -209 348 -221 3 -3 21 -17 42 -30 140 -92 407 -298 638
-492 248 -208 533 -480 725 -691 86 -95 99 -109 148 -166 11 -14 48 -57 81
-95 120 -140 155 -181 215 -260 34 -44 74 -98 88 -120 14 -22 29 -42 33 -45
12 -9 200 -281 200 -289 0 -5 4 -11 9 -13 7 -3 25 -28 76 -106 6 -9 40 -64 77
-123 65 -104 75 -120 132 -224 16 -27 32 -54 36 -60 4 -5 26 -44 48 -85 22
-41 52 -97 68 -125 16 -27 43 -77 59 -110 17 -33 33 -61 38 -63 4 -2 7 -10 7
-18 0 -8 11 -32 25 -54 14 -22 25 -43 25 -48 0 -5 29 -67 64 -138 35 -71 71
-147 81 -169 9 -22 21 -48 26 -57 5 -10 9 -22 9 -28 0 -5 12 -35 26 -67 32
-70 45 -101 74 -173 41 -103 49 -121 75 -190 9 -25 21 -53 26 -62 5 -10 9 -25
9 -33 0 -8 4 -23 9 -33 15 -27 61 -156 61 -170 0 -7 4 -20 9 -30 5 -9 21 -57
36 -107 15 -49 31 -98 36 -107 5 -10 9 -27 9 -38 0 -11 4 -28 9 -38 5 -9 17
-46 26 -82 9 -36 21 -75 26 -88 5 -13 9 -34 9 -48 0 -13 4 -32 9 -42 10 -19
30 -96 61 -237 5 -22 14 -60 20 -85 14 -61 39 -182 50 -252 74 -440 88 -546
109 -858 6 -85 15 -200 20 -255 13 -132 13 -663 0 -790 -6 -55 -15 -163 -20
-240 -15 -227 -40 -462 -64 -600 -18 -102 -26 -151 -44 -265 -9 -56 -26 -138
-71 -345 -5 -22 -14 -62 -19 -88 -6 -27 -13 -52 -16 -57 -5 -8 -12 -39 -35
-145 -4 -22 -15 -65 -24 -95 -20 -64 -33 -113 -41 -155 -4 -16 -10 -39 -15
-50 -4 -11 -20 -60 -35 -110 -15 -49 -31 -99 -35 -110 -4 -11 -15 -42 -23 -70
-18 -56 -36 -110 -48 -140 -4 -11 -15 -40 -23 -65 -8 -25 -20 -58 -26 -75 -7
-16 -16 -39 -20 -50 -4 -11 -12 -31 -17 -45 -6 -14 -18 -45 -28 -70 -31 -79
-33 -84 -48 -120 -8 -19 -31 -74 -51 -122 -94 -227 -393 -822 -468 -930 -10
-14 -18 -29 -18 -32 0 -4 -8 -19 -19 -34 -41 -60 -149 -237 -176 -289 -10 -18
-21 -33 -26 -33 -5 0 -9 -4 -9 -9 0 -16 -351 -514 -381 -541 -3 -3 -18 -23
-34 -45 -17 -22 -33 -42 -36 -45 -3 -3 -28 -32 -55 -66 -27 -33 -67 -83 -89
-110 -22 -27 -65 -76 -96 -109 -32 -33 -74 -80 -94 -105 -105 -128 -561 -570
-714 -694 -22 -17 -72 -58 -113 -91 -85 -70 -84 -68 -168 -135 -36 -28 -83
-65 -104 -83 -22 -18 -49 -39 -62 -47 -12 -8 -68 -49 -124 -90 -56 -41 -109
-79 -118 -85 -9 -5 -53 -35 -97 -66 -111 -78 -253 -169 -264 -169 -5 0 -11 -3
-13 -8 -4 -9 -158 -111 -213 -142 -22 -12 -53 -29 -70 -39 -16 -10 -46 -27
-65 -38 -19 -11 -57 -32 -85 -48 -122 -69 -412 -217 -535 -272 -25 -12 -72
-33 -105 -48 -66 -30 -106 -47 -147 -64 -16 -6 -40 -16 -55 -22 -16 -6 -41
-17 -58 -24 -16 -7 -41 -17 -55 -23 -14 -5 -41 -15 -60 -22 -35 -12 -46 -16
-110 -43 -44 -19 -208 -77 -235 -84 -11 -3 -29 -8 -40 -13 -11 -4 -60 -20
-110 -35 -49 -15 -98 -31 -107 -36 -10 -5 -29 -9 -42 -9 -14 0 -28 -4 -31 -10
-3 -5 -16 -10 -28 -10 -12 0 -39 -6 -62 -14 -39 -14 -96 -29 -165 -46 -177
-43 -221 -53 -260 -60 -82 -16 -144 -29 -215 -45 -93 -22 -229 -43 -412 -64
-46 -5 -88 -13 -94 -16 -35 -22 -807 -82 -1074 -84 -184 -1 -620 23 -880 49
-49 5 -117 12 -150 15 -83 7 -272 35 -316 46 -20 5 -52 9 -72 9 -20 0 -46 4
-59 9 -13 5 -57 14 -98 21 -41 7 -95 17 -120 22 -25 5 -65 13 -90 18 -85 17
-135 29 -195 45 -73 20 -127 33 -180 45 -22 4 -65 15 -95 25 -30 9 -70 19 -88
22 -18 3 -35 9 -38 14 -3 5 -14 9 -26 9 -17 0 -194 54 -263 80 -11 4 -47 16
-80 26 -33 10 -64 22 -69 26 -6 4 -18 8 -28 8 -10 0 -26 4 -36 9 -9 6 -51 22
-92 36 -41 15 -84 30 -95 35 -11 4 -51 20 -90 35 -38 15 -79 31 -90 35 -24 10
-73 31 -140 60 -27 12 -63 28 -80 35 -98 42 -147 65 -300 141 -185 92 -271
137 -325 171 -19 11 -53 31 -75 43 -41 23 -195 112 -229 133 -85 53 -302 192
-306 196 -3 3 -59 42 -125 86 -103 69 -350 248 -365 265 -3 3 -23 18 -45 35
-22 16 -42 31 -45 34 -3 4 -41 33 -84 66 -43 33 -84 64 -90 70 -6 6 -40 35
-76 64 -36 30 -92 79 -126 110 -33 31 -101 92 -149 136 -116 104 -335 324
-410 411 -33 38 -81 92 -107 119 -25 28 -57 64 -69 80 -13 17 -40 48 -60 70
-21 22 -52 58 -69 80 -17 22 -46 58 -65 80 -18 22 -59 72 -91 111 -33 39 -84
106 -114 148 -30 43 -71 99 -91 124 -20 26 -57 79 -84 117 -26 39 -52 72 -57
73 -4 2 -8 8 -8 14 0 6 -15 31 -34 57 -36 50 -231 355 -263 411 -11 19 -47 82
-81 140 -33 58 -74 130 -91 160 -33 59 -177 349 -206 415 -10 22 -29 65 -43
95 -13 30 -28 64 -32 75 -5 11 -18 42 -29 68 -12 26 -29 67 -37 90 -9 23 -20
51 -24 62 -5 11 -16 38 -25 60 -10 22 -21 49 -26 60 -4 11 -15 40 -23 65 -20
59 -55 160 -65 185 -22 55 -54 153 -58 178 -3 15 -9 30 -14 33 -5 3 -9 18 -9
34 0 16 -4 31 -9 34 -5 4 -12 24 -16 46 -4 22 -11 42 -16 46 -5 3 -9 18 -9 34
0 16 -4 32 -10 35 -5 3 -10 17 -10 30 0 13 -4 34 -9 47 -11 29 -44 149 -70
256 -5 20 -16 64 -25 97 -15 62 -30 127 -41 180 -3 17 -10 48 -15 70 -22 107
-43 216 -51 268 -20 130 -28 177 -44 267 -32 183 -57 452 -85 930 -13 226 -13
524 1 670 5 63 15 183 20 265 6 83 14 188 19 235 5 47 13 130 18 185 6 55 13
107 16 115 3 8 11 53 17 100 22 166 41 280 64 390 9 41 20 95 25 120 17 83 36
170 60 265 7 28 16 67 21 88 17 71 31 122 54 202 13 44 29 100 36 125 6 25 22
74 35 110 13 36 24 71 24 78 0 7 4 20 9 30 5 9 21 58 37 107 15 50 31 94 36
100 4 5 8 16 8 25 0 9 11 40 25 68 14 29 25 56 25 62 0 6 4 18 9 28 5 9 26 60
46 112 21 52 41 104 45 115 10 26 48 109 92 205 19 41 47 100 61 130 50 109
120 247 214 420 17 30 46 85 65 121 20 37 52 92 72 123 20 31 36 59 36 62 0 2
8 17 19 32 10 15 57 88 104 162 46 74 116 181 153 236 38 55 74 108 79 116 47
71 118 167 207 277 24 29 50 63 58 76 18 25 144 180 160 195 3 3 24 27 45 55
22 27 56 68 76 90 20 22 59 67 87 100 141 168 656 665 824 797 29 23 55 44 58
48 6 6 137 111 190 151 19 15 44 36 55 46 17 16 67 53 215 158 16 11 95 65
177 120 81 55 150 103 151 108 2 4 8 7 13 7 5 0 40 20 79 45 39 25 73 45 77
45 3 0 21 11 39 25 18 14 36 25 39 25 4 0 19 8 33 19 15 10 47 29 72 43 25 14
61 34 80 45 193 109 422 228 545 283 28 12 82 37 120 55 148 69 186 85 198 85
7 0 17 4 23 8 5 5 28 16 51 25 23 9 61 25 85 35 24 11 75 32 113 46 39 15 78
32 87 37 10 5 25 9 33 9 8 0 23 4 33 9 9 6 49 21 87 34 192 66 263 90 295 99
41 11 74 20 150 43 106 32 144 42 238 64 20 5 64 16 97 26 33 9 80 21 105 26
126 23 151 28 158 33 12 7 184 39 297 55 33 5 107 17 165 26 185 30 278 39
695 69 127 9 241 18 255 20 23 4 653 -1 710 -5z"/>
<path d="M9770 18090 c-25 -5 -91 -9 -148 -9 -57 -1 -122 -6 -145 -11 -23 -6
-89 -15 -147 -21 -289 -28 -374 -39 -500 -64 -92 -18 -157 -31 -235 -45 -78
-14 -216 -47 -253 -61 -13 -5 -36 -9 -52 -9 -16 0 -32 -4 -35 -10 -3 -5 -20
-10 -36 -10 -17 0 -63 -11 -102 -24 -40 -13 -90 -28 -112 -34 -104 -29 -228
-67 -305 -95 -47 -16 -97 -32 -113 -34 -15 -3 -30 -9 -33 -14 -3 -5 -13 -9
-23 -9 -9 0 -41 -11 -69 -25 -29 -14 -58 -25 -66 -25 -8 0 -18 -4 -21 -10 -3
-5 -17 -10 -30 -10 -13 0 -26 -4 -29 -8 -3 -5 -47 -26 -98 -47 -99 -39 -136
-56 -288 -128 -169 -80 -304 -147 -355 -176 -105 -60 -122 -69 -180 -101 -33
-18 -72 -41 -87 -51 -14 -11 -29 -19 -33 -19 -3 0 -31 -16 -61 -35 -30 -19
-57 -35 -61 -35 -5 0 -398 -262 -468 -313 -25 -18 -163 -123 -294 -222 -14
-11 -53 -42 -86 -68 -33 -27 -89 -73 -125 -102 -36 -28 -81 -67 -101 -86 -19
-19 -73 -67 -119 -108 -132 -116 -479 -462 -608 -606 -64 -71 -119 -132 -122
-135 -3 -3 -24 -27 -45 -55 -22 -27 -48 -59 -59 -70 -10 -11 -30 -36 -44 -55
-15 -19 -43 -54 -64 -77 -21 -24 -38 -46 -38 -50 0 -5 -13 -21 -28 -38 -35
-38 -286 -394 -347 -494 -6 -9 -28 -43 -51 -76 -22 -33 -44 -67 -47 -75 -4 -8
-18 -33 -32 -55 -14 -22 -30 -49 -35 -60 -6 -11 -28 -49 -50 -84 -22 -34 -40
-65 -40 -67 0 -2 -27 -52 -60 -110 -33 -58 -60 -107 -60 -109 0 -2 -47 -101
-105 -222 -105 -217 -121 -250 -135 -288 -5 -11 -20 -51 -35 -90 -15 -38 -31
-79 -35 -90 -4 -11 -15 -40 -25 -65 -10 -25 -21 -54 -25 -65 -4 -11 -14 -40
-21 -65 -7 -25 -15 -49 -19 -55 -3 -5 -14 -37 -24 -70 -10 -33 -22 -69 -26
-80 -4 -11 -13 -40 -20 -65 -7 -25 -18 -63 -25 -85 -12 -40 -30 -102 -46 -160
-4 -16 -18 -64 -30 -105 -11 -41 -25 -93 -30 -115 -20 -101 -29 -137 -34 -145
-6 -10 -23 -83 -36 -160 -5 -30 -13 -77 -19 -105 -42 -220 -67 -383 -89 -570
-6 -49 -13 -103 -17 -120 -23 -113 -49 -594 -48 -915 0 -341 27 -840 48 -906
3 -10 10 -57 16 -104 16 -134 39 -277 65 -410 9 -47 19 -103 22 -125 3 -22 9
-44 14 -49 5 -6 9 -22 9 -37 0 -14 9 -62 21 -105 11 -44 23 -90 25 -104 7 -34
31 -131 59 -230 7 -25 18 -65 25 -90 7 -25 16 -56 20 -70 4 -14 20 -65 35
-115 15 -49 31 -98 36 -107 5 -10 9 -26 9 -36 0 -10 4 -22 8 -27 4 -6 16 -37
27 -70 10 -33 22 -64 27 -69 4 -6 8 -18 8 -28 0 -10 4 -26 9 -36 8 -15 16 -35
51 -127 57 -149 65 -169 115 -278 19 -43 35 -81 35 -84 0 -6 93 -200 154 -323
64 -128 183 -347 200 -370 7 -8 23 -36 36 -63 13 -26 29 -52 37 -58 7 -6 13
-16 13 -21 0 -5 17 -35 38 -66 57 -85 115 -174 128 -199 7 -12 17 -28 23 -35
12 -13 104 -143 131 -183 52 -79 265 -359 298 -394 7 -8 39 -46 70 -85 31 -39
78 -93 103 -121 25 -27 66 -72 90 -100 121 -138 541 -557 651 -651 31 -27 97
-83 145 -124 48 -41 90 -77 93 -80 10 -10 246 -197 315 -248 39 -29 87 -66
107 -82 20 -17 39 -30 42 -30 3 0 32 -19 63 -43 77 -57 420 -277 433 -277 5 0
10 -4 10 -8 0 -4 12 -13 28 -19 15 -7 54 -28 87 -48 33 -20 67 -39 75 -42 8
-4 17 -9 20 -12 8 -10 155 -86 320 -167 204 -100 330 -158 440 -202 14 -5 48
-20 75 -32 87 -38 109 -47 145 -60 33 -12 78 -30 125 -50 11 -5 38 -14 60 -21
22 -6 49 -15 60 -20 11 -4 58 -20 105 -35 47 -15 94 -30 105 -34 23 -9 150
-47 280 -84 50 -15 104 -31 121 -36 17 -6 42 -10 57 -10 14 0 28 -4 31 -9 3
-5 23 -11 43 -14 21 -3 70 -13 108 -22 119 -29 208 -47 322 -63 33 -5 65 -12
70 -15 5 -3 47 -11 94 -18 46 -6 111 -15 144 -20 60 -9 114 -16 315 -38 58 -6
140 -17 184 -23 109 -15 1052 -15 1177 1 52 6 139 16 194 22 309 33 526 62
546 74 4 3 36 10 71 15 92 14 202 36 323 65 39 9 88 21 110 25 67 15 116 27
195 49 129 36 153 43 225 66 39 12 90 28 115 34 25 7 53 17 62 22 10 5 24 9
33 9 8 0 31 7 52 16 45 20 65 27 118 44 39 12 183 67 255 97 19 8 44 18 55 22
11 5 31 13 45 18 14 6 50 22 80 36 30 14 80 37 110 50 30 13 78 34 105 47 70
31 339 164 345 170 3 3 23 15 45 26 105 56 163 89 200 114 22 15 81 50 130 79
120 70 126 73 149 94 11 9 23 17 27 17 9 0 316 206 336 225 8 8 18 15 22 15 4
0 16 8 27 19 11 10 38 30 60 44 52 34 326 247 344 267 3 4 34 30 70 60 160
131 486 448 691 670 68 74 126 137 129 140 3 3 23 28 45 55 21 28 42 52 45 55
3 3 24 27 45 55 22 27 46 56 53 64 7 8 39 46 70 85 31 39 59 73 62 76 4 3 11
12 16 21 5 9 23 34 41 55 50 60 205 272 249 339 21 33 42 62 45 65 8 6 42 62
66 108 9 17 20 32 25 32 4 0 8 4 8 10 0 5 27 52 60 103 33 52 60 99 60 105 0
7 5 12 10 12 6 0 10 5 10 11 0 6 8 23 18 37 11 15 38 63 62 107 23 44 46 85
50 90 10 12 180 352 205 410 10 22 31 69 47 105 72 156 83 181 123 285 15 39
31 79 35 90 4 11 20 48 34 83 14 35 26 72 26 82 0 10 5 22 10 25 6 3 10 15 10
26 0 10 4 27 9 37 23 46 41 95 41 112 0 10 5 22 10 25 6 3 10 17 10 31 0 13 4
32 9 42 13 26 32 84 38 112 2 14 8 34 13 45 4 11 12 38 18 60 6 22 18 69 27
105 9 36 21 73 26 82 5 10 9 28 9 40 0 12 4 35 9 52 14 45 52 203 62 261 6 28
14 73 19 100 12 72 49 263 60 313 6 23 10 62 10 87 0 25 4 64 10 87 47 212 80
942 61 1364 -14 313 -26 492 -34 519 -4 11 -12 70 -18 130 -16 165 -38 314
-65 450 -8 44 -18 100 -21 125 -3 25 -9 49 -14 55 -5 5 -9 24 -9 42 0 17 -4
42 -9 55 -5 13 -17 59 -26 103 -9 44 -21 89 -25 100 -5 11 -11 34 -14 50 -7
43 -21 101 -41 170 -10 33 -20 75 -22 93 -3 18 -9 35 -14 38 -5 3 -9 20 -9 38
0 17 -4 36 -9 41 -5 6 -16 37 -26 70 -9 33 -21 69 -25 80 -4 11 -16 47 -26 80
-10 33 -22 64 -26 70 -4 5 -8 17 -8 27 0 10 -4 26 -9 36 -6 9 -22 51 -36 92
-15 41 -31 86 -37 100 -6 14 -15 36 -20 50 -12 29 -28 67 -57 132 -12 26 -21
50 -21 53 0 16 -251 536 -298 617 -12 21 -38 68 -58 105 -21 37 -48 85 -61
105 -13 21 -23 40 -23 43 0 3 -31 55 -70 116 -38 60 -70 112 -70 115 0 3 -20
34 -45 68 -25 35 -45 66 -45 69 0 4 -53 81 -117 173 -65 91 -125 176 -133 188
-8 11 -49 64 -90 116 -42 52 -83 105 -91 118 -9 12 -34 42 -56 65 -21 23 -46
52 -55 65 -68 99 -578 627 -725 752 -35 30 -72 62 -81 70 -10 8 -49 41 -87 73
-39 31 -101 84 -140 117 -77 66 -130 108 -250 200 -44 33 -96 73 -115 89 -34
27 -233 165 -268 186 -9 6 -38 25 -65 43 -26 17 -50 32 -53 32 -3 0 -34 20
-68 45 -35 25 -67 45 -70 45 -4 0 -22 11 -40 25 -18 14 -36 25 -39 25 -4 0
-38 20 -76 45 -38 25 -74 45 -79 45 -6 0 -52 24 -104 53 -51 28 -111 61 -133
72 -22 11 -41 23 -43 28 -2 4 -10 7 -17 7 -8 0 -36 12 -62 27 -58 32 -55 30
-173 86 -94 44 -153 70 -242 106 -13 5 -45 19 -71 30 -26 12 -67 29 -90 37
-23 9 -51 19 -62 24 -11 4 -40 15 -65 25 -25 9 -53 21 -62 26 -10 5 -27 9 -37
9 -11 0 -22 4 -25 9 -3 5 -18 11 -33 14 -24 4 -109 31 -178 57 -11 4 -60 20
-110 35 -49 14 -104 31 -121 36 -17 5 -38 9 -47 9 -10 0 -25 4 -35 9 -9 5 -44
16 -77 25 -33 10 -74 22 -91 27 -17 5 -43 9 -57 9 -15 0 -35 4 -45 9 -17 9
-199 51 -307 71 -33 6 -81 16 -107 21 -128 28 -323 56 -553 78 -60 6 -121 13
-135 16 -107 24 -1133 45 -1240 25z m3810 -3595 c69 -9 144 -20 168 -25 23 -6
52 -10 64 -10 12 0 35 -4 52 -9 17 -5 60 -17 96 -26 36 -9 73 -21 82 -26 10
-5 25 -9 33 -9 8 0 23 -4 33 -9 18 -10 61 -28 122 -52 19 -7 62 -29 95 -47 33
-19 76 -43 95 -54 103 -58 255 -202 328 -308 45 -67 112 -199 112 -222 0 -9 4
-19 9 -22 5 -3 11 -20 14 -38 3 -18 10 -53 16 -78 41 -169 42 -383 1 -615 -22
-123 -29 -154 -72 -330 -5 -22 -13 -60 -18 -85 -16 -84 -49 -215 -61 -248 -5
-13 -9 -33 -9 -44 0 -12 -4 -35 -9 -52 -5 -17 -17 -60 -26 -96 -9 -36 -21 -79
-26 -96 -5 -17 -9 -43 -9 -57 0 -15 -4 -35 -9 -45 -5 -9 -17 -53 -26 -97 -10
-44 -21 -90 -26 -103 -5 -13 -9 -34 -9 -47 0 -13 -4 -34 -9 -47 -5 -13 -16
-57 -26 -98 -9 -41 -20 -86 -25 -100 -4 -14 -13 -52 -20 -85 -7 -33 -16 -71
-20 -85 -5 -14 -16 -61 -25 -105 -9 -44 -21 -89 -25 -100 -5 -11 -11 -33 -13
-50 -4 -26 -24 -110 -57 -235 -5 -19 -14 -57 -20 -85 -15 -67 -38 -162 -50
-205 -5 -19 -17 -66 -26 -105 -34 -147 -84 -264 -146 -341 -59 -74 -179 -142
-297 -168 -30 -6 -1071 -12 -2961 -15 -2357 -5 -2922 -9 -2953 -19 -54 -19
-101 -64 -131 -126 -14 -29 -26 -58 -26 -65 0 -6 -4 -19 -9 -29 -5 -9 -14 -35
-19 -57 -6 -22 -20 -74 -32 -115 -21 -74 -33 -123 -49 -210 -5 -25 -17 -70
-26 -100 -9 -30 -21 -73 -25 -95 -18 -82 -43 -179 -65 -255 -19 -61 -29 -102
-44 -173 -6 -27 -13 -52 -16 -57 -3 -5 -10 -30 -16 -57 -5 -26 -14 -66 -20
-88 -54 -219 -71 -308 -66 -364 16 -200 147 -360 332 -404 22 -5 117 -13 210
-17 256 -11 4931 -1 4961 10 14 6 41 10 59 10 19 0 44 4 57 9 13 5 52 17 88
26 36 9 73 21 82 26 10 5 26 9 36 9 10 0 22 4 27 8 6 5 42 21 80 36 103 41
129 53 255 113 63 30 125 60 138 66 18 9 30 8 50 -4 40 -22 36 -63 -33 -314
-10 -33 -19 -75 -22 -93 -3 -18 -9 -35 -14 -38 -5 -3 -9 -18 -9 -34 0 -16 -4
-39 -9 -52 -8 -21 -32 -107 -51 -188 -23 -95 -60 -242 -71 -276 -5 -17 -9 -40
-9 -52 0 -11 -4 -31 -9 -44 -5 -13 -14 -45 -20 -73 -13 -59 -40 -151 -51 -180
-104 -266 -205 -366 -490 -483 -42 -18 -80 -24 -200 -32 -166 -12 -6117 -11
-6325 1 -216 12 -345 30 -425 58 -14 5 -45 14 -70 21 -257 72 -489 205 -654
374 -139 143 -198 235 -271 421 -15 39 -31 79 -35 90 -10 23 -13 40 -41 190
-16 93 -19 141 -16 305 3 123 11 227 21 280 20 105 33 175 46 243 5 28 17 79
26 112 8 33 18 71 21 85 2 14 8 34 13 45 5 11 11 36 13 55 3 19 12 62 22 95
21 72 35 129 42 173 3 18 9 35 14 38 5 3 9 15 9 27 0 12 6 42 14 67 8 25 19
64 25 88 22 86 33 128 46 177 8 28 19 70 25 95 23 88 30 116 45 170 9 30 21
73 26 95 6 22 15 54 20 71 5 17 9 39 9 49 0 10 4 32 10 49 15 49 46 167 74
281 8 33 22 87 31 120 9 33 21 78 25 100 5 22 13 56 19 75 21 71 45 163 70
268 5 20 17 64 26 97 10 33 21 77 26 98 5 20 13 54 19 75 5 20 13 55 18 77 5
22 17 67 27 100 9 33 21 76 25 95 4 19 15 60 24 90 8 30 18 66 22 80 3 14 9
34 14 45 5 11 11 34 14 50 7 42 21 100 41 170 18 63 31 114 45 180 4 22 16 65
25 95 9 30 19 66 22 80 2 14 8 34 13 45 5 11 11 34 13 50 5 30 9 46 42 160 9
33 21 76 25 95 4 19 20 73 35 120 15 47 31 103 35 125 12 59 38 154 81 291 5
17 9 39 9 50 0 11 4 24 8 30 4 5 15 34 25 64 59 193 85 260 173 445 54 113
193 341 237 387 6 7 37 42 67 78 105 124 243 252 370 344 54 39 166 113 197
131 15 9 55 32 88 51 33 19 76 42 95 50 65 29 107 47 195 84 11 4 36 13 55 20
19 7 44 16 55 20 11 5 45 16 75 26 30 9 64 20 75 25 11 4 31 10 45 13 14 3 52
12 85 21 129 34 192 46 335 65 41 5 98 14 125 19 29 5 1086 9 2500 10 2137 1
2466 -1 2575 -14z"/>
<path d="M9115 12910 c-62 -7 -77 -12 -180 -50 -114 -43 -266 -166 -348 -281
-38 -54 -83 -151 -108 -234 -6 -22 -18 -58 -25 -80 -8 -23 -14 -50 -14 -60 0
-11 -8 -40 -17 -65 -9 -25 -19 -63 -23 -85 -4 -22 -15 -67 -25 -100 -9 -33
-21 -79 -26 -102 -19 -91 -28 -130 -44 -188 -17 -61 -28 -104 -44 -172 -5 -21
-18 -67 -28 -103 -59 -196 -58 -240 8 -283 24 -16 155 -17 1865 -18 1340 0
1847 3 1869 11 146 55 259 159 304 280 18 49 27 70 41 105 7 17 17 47 21 68 5
20 14 55 19 77 6 22 14 57 19 78 22 94 34 138 42 154 5 10 9 29 9 43 0 14 4
33 9 43 8 15 18 53 62 237 49 201 63 310 50 389 -7 39 -16 75 -22 80 -5 6 -9
16 -9 24 0 36 -107 157 -169 192 -84 47 7 44 -1636 46 -847 1 -1567 -2 -1600
-6z"/>
</g>
</svg>
